<?xml version="1.0" standalone="no"?>
<!DOCTYPE svg PUBLIC "-//W3C//DTD SVG 20010904//EN"
 "http://www.w3.org/TR/2001/REC-SVG-20010904/DTD/svg10.dtd">
<svg version="1.0" xmlns="http://www.w3.org/2000/svg"
 width="540.000000pt" height="462.000000pt" viewBox="0 0 540.000000 462.000000"
 preserveAspectRatio="xMidYMid meet">

<g transform="translate(0.000000,462.000000) scale(0.100000,-0.100000)"
fill="#000000" stroke="none">
<path d="M2071 4164 c-88 -24 -159 -71 -279 -188 -125 -122 -144 -157 -123
-227 20 -67 100 -112 167 -95 15 4 74 53 133 109 126 122 161 142 241 134 192
-17 315 -216 236 -382 -34 -73 -567 -600 -645 -638 -95 -47 -137 -39 -251 45
-38 28 -113 30 -153 3 -57 -37 -76 -119 -43 -183 19 -37 98 -99 175 -138 72
-36 199 -45 286 -19 146 42 195 81 542 427 362 359 388 400 388 608 0 167 -44
271 -164 389 -146 145 -335 202 -510 155z"/>
<path d="M3340 2985 l0 -1025 195 0 195 0 0 365 0 365 174 0 c256 0 389 28
528 111 145 86 247 207 295 353 24 72 27 97 27 216 0 97 -5 153 -17 200 -68
254 -247 391 -567 430 -46 5 -252 10 -457 10 l-373 0 0 -1025z m793 685 c77
-26 147 -82 177 -140 10 -20 24 -67 31 -104 20 -120 -7 -236 -73 -311 -79 -90
-161 -115 -380 -115 l-158 0 0 351 0 352 168 -5 c139 -4 178 -9 235 -28z"/>
<path d="M1430 3440 c-180 -24 -266 -86 -632 -449 -292 -292 -309 -315 -349
-469 -24 -95 -24 -149 0 -244 28 -110 65 -174 145 -254 113 -114 222 -159 381
-158 112 1 173 16 266 65 65 35 241 194 264 240 46 88 -20 199 -117 199 -56 0
-76 -12 -166 -96 -110 -104 -165 -134 -246 -134 -191 0 -321 202 -241 375 25
54 512 541 594 594 107 69 201 77 264 22 17 -15 42 -33 54 -40 31 -16 99 -14
133 4 33 17 70 80 70 120 0 45 -36 99 -95 142 -96 71 -204 99 -325 83z"/>
<path d="M887 1568 c33 -146 123 -360 201 -482 170 -264 422 -486 691 -609
106 -48 252 -95 373 -119 162 -32 434 -32 596 0 227 46 451 141 632 269 122
87 296 262 382 383 111 157 212 379 252 558 l14 62 -177 0 -178 0 -17 -64
c-24 -86 -112 -265 -175 -353 -195 -275 -489 -462 -815 -518 -114 -19 -319
-19 -432 0 -452 79 -838 414 -980 849 l-28 86 -177 0 -176 0 14 -62z"/>
</g>
</svg>
